<svg version="1.2" xmlns="http://www.w3.org/2000/svg" viewBox="0 0 705 531" width="705" height="531">
	<title>deti_store_logo-svg</title>
	<style>
		.s0 { fill: #65de4a;stroke: #000000;stroke-miterlimit:100;stroke-width: 6 } 
		.s1 { fill: #000000 } 
	</style>
	<path id="Shape 1" class="s0" d="m31 24h639v253.5h-639z"/>
	<path id="deti" fill-rule="evenodd" class="s1" d="m159.1 119v-72.3l16.2 2.3v192.1h-14.1l-2.1-18.9q-8.2 11.7-18.4 16.6-10 4.9-20.7 4.9-18.1 0-29.8-8.9-11.6-9-17.2-24.9-5.6-16-5.6-36.8 0-20.5 6.3-36.5 6.4-16.1 18.2-25.4 12-9.4 28.9-9.4 12.5 0 21.9 4.5 9.4 4.3 16.4 12.7zm-34.2-3.2q-19.1 0-29.2 14.4-10 14.4-10 42.7 0 18 4 30.8 4.2 12.6 12.2 19.2 8.1 6.7 20.2 6.7 13 0 22-7.3 9.1-7.3 15-16v-71.1q-6-9.3-15-14.4-8.8-5-19.2-5zm212.1 63.4h-93q0.4 17.2 6.1 28.3 5.9 10.9 15.4 16.1 9.5 5.2 20.7 5.2 10.8 0 19.2-3.1 8.4-3.1 17.7-9.5l8.4 12.1q-9.5 7.3-21.5 11.3-11.8 4.1-23.1 4.1-18.9 0-32.5-8.9-13.4-8.9-20.5-24.7-7.2-16.1-7.2-37.3 0-20.8 7.3-36.8 7.3-16.1 20.2-25 13-9.2 30.2-9.2 16.7 0 28.5 8.1 11.9 8.1 18.1 22.9 6.4 14.7 6.4 35.2 0 3.5-0.1 6.4-0.2 2.7-0.3 4.8zm-52.2-62.3q-16.6 0-27.9 11.8-11.2 11.7-12.6 35.9h77.7q-0.5-24.1-10.8-35.8-10.3-11.9-26.4-11.9zm201.1 106l7 11.6q-6.8 4.5-16.4 6.8-9.7 2.4-17.9 2.4-20.5 0-32.3-11-11.6-10.9-11.6-27.5v-87.3h-32.2v-13.6h32.2v-31.5l16.2-2v33.5h48.2l-2.2 13.6h-46v86.9q0 11.9 6.4 18.4 6.5 6.4 21.7 6.4 7.8 0 14.5-1.8 6.6-1.9 12.4-4.9zm65.9-118.6h58v122.7h39.8v14.1h-99.2v-14.1h43.3v-108.6h-41.9zm42.8-61.9q6.2 0 9.9 3.8 3.6 3.8 3.6 9.1 0 5.7-3.6 9.6-3.7 3.8-9.9 3.8-5.9 0-9.5-3.8-3.7-3.9-3.7-9.6 0-5.3 3.7-9.1 3.6-3.8 9.5-3.8z"/>
	<path id="STORE" fill-rule="evenodd" class="s1" d="m103.6 503.4q-17.9 0-30.8-5.1-12.5-5.1-19.3-17.9-6.7-12.9-6.7-36.2v-11.9q10.4 0 20.6 0 10.1 0 20.3 0v15.3q0 12.5 2 19.2 2 6.5 5.8 9.2 3.7 2.3 8.8 2.3 7.7 0 12.1-5.4 4.8-5.7 4.8-22 0-12.5-4.1-18.6-3.7-6.4-12.2-10.1-8.4-4.1-21.6-9.8-11.8-5.1-19.6-12.2-7.8-7.1-11.5-17.9-3.7-10.8-3.7-26.4 0-19.6 5-31.8 5.4-12.2 17.6-17.6 12.5-5.7 33.5-5.7 27.1 0 41.3 11.8 14.5 11.5 14.5 34.8v24.1q-9.8 0-19.6 0-9.5 0-19.6 0v-12.2q0-15.2-3.7-21.3-3.4-6.1-12.6-6.1-8.8 0-12.5 5.4-3.7 5.4-3.7 17.6 0 11.1 4.4 17.6 4.7 6.1 11.8 9.4 7.1 3.1 15.3 6.1 14.8 5.8 24.3 11.9 9.5 5.7 13.9 16.2 4.4 10.2 4.4 29.4 0 21.7-7.5 34.5-7.1 12.5-20.6 18-13.2 5.4-31.1 5.4zm140.7-2.4h-39.2v-172.2h-31.2v-27.7h101.5v27.7h-31.1zm99.1 4.1q-16.6 0-29.1-3.7-12.5-4.1-19.6-16.3-6.8-12.5-6.8-36.8v-104.9q0-17.9 6.8-27.7 7.1-9.8 19.6-13.5 12.9-4.1 29.4-4.1 16.3 0 28.8 4.1 12.8 4 19.9 13.8 7.5 9.8 7.5 27.4v104.5q0 24.7-7.5 37.2-7.1 12.2-19.9 16.3-12.5 3.7-29.1 3.7zm0-23q5.1 0 8.8-1.7 4-1.7 6.1-5.7 2.3-4.4 2.3-11.9v-121.1q0-7.4-2.3-11.5-2.1-4.4-6.1-6-3.7-1.7-8.8-1.7-5.1 0-8.8 1.7-3.7 1.6-6.1 6-2 4.1-2 11.5v121.1q0 7.5 2 11.9 2.4 4 6.1 5.7 3.7 1.7 8.8 1.7zm123.4 18.9h-40.9v-199.8h73.1q19.9 0 30.1 9.1 10.1 8.8 10.1 24.7v31.1q0 15.9-8.4 26.7-8.5 10.8-26.4 12.5 11.5 1.7 16.2 7.8 5.1 5.8 8.8 18.9l19 69h-43.7l-14.5-66.2q-2.1-8.2-4.8-13.6-2.3-5.7-7.1-5.7h-11.5zm0-178.6v65.6h16.3q9.4 0 13.5-5.1 4.1-5.4 4.1-16.9v-24q0-10.8-3.8-15.2-3.7-4.4-11.5-4.4zm193.2 178.6h-92v-199.9h92v27.7h-51.1v53.5h43.3v30.7h-43.3v60.9h51.1z"/>
</svg>